<svg width="20" height="20" viewBox="0 0 20 20" fill="none" xmlns="http://www.w3.org/2000/svg">
<path d="M1.11111 16.3333C0.796296 16.3333 0.532593 16.2267 0.32 16.0133C0.106667 15.8007 0 15.537 0 15.2222C0 14.9074 0.106667 14.6437 0.32 14.4311C0.532593 14.2178 0.796296 14.1111 1.11111 14.1111H18.8889C19.2037 14.1111 19.4674 14.2178 19.68 14.4311C19.8933 14.6437 20 14.9074 20 15.2222C20 15.537 19.8933 15.8007 19.68 16.0133C19.4674 16.2267 19.2037 16.3333 18.8889 16.3333H1.11111ZM1.11111 10.7778C0.796296 10.7778 0.532593 10.6711 0.32 10.4578C0.106667 10.2452 0 9.98148 0 9.66667C0 9.35185 0.106667 9.08778 0.32 8.87444C0.532593 8.66185 0.796296 8.55556 1.11111 8.55556H18.8889C19.2037 8.55556 19.4674 8.66185 19.68 8.87444C19.8933 9.08778 20 9.35185 20 9.66667C20 9.98148 19.8933 10.2452 19.68 10.4578C19.4674 10.6711 19.2037 10.7778 18.8889 10.7778H1.11111ZM1.11111 5.22222C0.796296 5.22222 0.532593 5.11593 0.32 4.90333C0.106667 4.69 0 4.42593 0 4.11111C0 3.7963 0.106667 3.53222 0.32 3.31889C0.532593 3.1063 0.796296 3 1.11111 3H18.8889C19.2037 3 19.4674 3.1063 19.68 3.31889C19.8933 3.53222 20 3.7963 20 4.11111C20 4.42593 19.8933 4.69 19.68 4.90333C19.4674 5.11593 19.2037 5.22222 18.8889 5.22222H1.11111Z" fill="#F24E1E"/>
</svg>
