<svg width="20" height="20" viewBox="0 0 20 20" fill="none" xmlns="http://www.w3.org/2000/svg">
<g clip-path="url(#clip0_191_205)">
<path d="M10 11.1111C11.0741 11.1111 11.9907 10.7315 12.75 9.97222C13.5093 9.21296 13.8889 8.2963 13.8889 7.22222C13.8889 6.14815 13.5093 5.23148 12.75 4.47222C11.9907 3.71296 11.0741 3.33333 10 3.33333C8.92593 3.33333 8.00926 3.71296 7.25 4.47222C6.49074 5.23148 6.11111 6.14815 6.11111 7.22222C6.11111 8.2963 6.49074 9.21296 7.25 9.97222C8.00926 10.7315 8.92593 11.1111 10 11.1111ZM2.22222 20C1.61111 20 1.08778 19.7826 0.652222 19.3478C0.217407 18.9122 0 18.3889 0 17.7778V2.22222C0 1.61111 0.217407 1.08778 0.652222 0.652222C1.08778 0.217407 1.61111 0 2.22222 0H17.7778C18.3889 0 18.9122 0.217407 19.3478 0.652222C19.7826 1.08778 20 1.61111 20 2.22222V17.7778C20 18.3889 19.7826 18.9122 19.3478 19.3478C18.9122 19.7826 18.3889 20 17.7778 20H2.22222ZM2.22222 17.7778H17.7778V16.5C16.7778 15.5185 15.6159 14.7452 14.2922 14.18C12.9678 13.6156 11.537 13.3333 10 13.3333C8.46296 13.3333 7.03259 13.6156 5.70889 14.18C4.38444 14.7452 3.22222 15.5185 2.22222 16.5V17.7778Z" fill="#F24E1E"/>
</g>
<defs>
<clipPath id="clip0_191_205">
<rect width="20" height="20" fill="white"/>
</clipPath>
</defs>
</svg>
