<svg width="55" height="69" viewBox="0 0 55 69" fill="none" xmlns="http://www.w3.org/2000/svg">
<path d="M45.0718 8.2V13.576H30.1598V53H24.7838V13.576H9.90375V8.2H45.0718Z" fill="#EB4700"/>
<path d="M27.1858 64.832C24.1564 64.832 21.3084 64.2347 18.6418 63.04C15.9751 61.824 13.6284 60.1493 11.6018 58.016C9.57509 55.8827 7.98576 53.4187 6.83376 50.624C5.68176 47.808 5.10576 44.8 5.10576 41.6C5.10576 38.4 5.68176 35.4027 6.83376 32.608C7.98576 29.792 9.57509 27.3173 11.6018 25.184C13.6284 23.0507 15.9751 21.3867 18.6418 20.192C21.3084 18.976 24.1564 18.368 27.1858 18.368C30.2364 18.368 33.0951 18.976 35.7618 20.192C38.4284 21.3867 40.7751 23.0507 42.8018 25.184C44.8284 27.3173 46.4071 29.792 47.5378 32.608C48.6898 35.4027 49.2658 38.4 49.2658 41.6C49.2658 44.8 48.6898 47.808 47.5378 50.624C46.4071 53.4187 44.8284 55.8827 42.8018 58.016C40.7751 60.1493 38.4284 61.824 35.7618 63.04C33.0951 64.2347 30.2364 64.832 27.1858 64.832ZM27.1858 61.376C29.7884 61.376 32.2098 60.8533 34.4498 59.808C36.7111 58.7627 38.6844 57.3333 40.3698 55.52C42.0764 53.6853 43.4098 51.5733 44.3698 49.184C45.3298 46.7947 45.8098 44.2667 45.8098 41.6C45.8098 38.8907 45.3191 36.3413 44.3378 33.952C43.3778 31.5627 42.0444 29.4613 40.3378 27.648C38.6311 25.8347 36.6578 24.416 34.4178 23.392C32.1778 22.3467 29.7671 21.824 27.1858 21.824C24.5831 21.824 22.1511 22.3467 19.8898 23.392C17.6498 24.4373 15.6764 25.8773 13.9698 27.712C12.2844 29.5253 10.9618 31.6267 10.0018 34.016C9.04176 36.4053 8.56176 38.9333 8.56176 41.6C8.56176 44.3093 9.04176 46.8587 10.0018 49.248C10.9831 51.6373 12.3271 53.7493 14.0338 55.584C15.7404 57.3973 17.7138 58.816 19.9538 59.84C22.2151 60.864 24.6258 61.376 27.1858 61.376Z" fill="#EB4700"/>
</svg>
