<svg width="316" height="77" viewBox="0 0 316 77" fill="none" xmlns="http://www.w3.org/2000/svg">
<path d="M95.8218 16.2V19.656H79.9498V61H76.4938V19.656H60.6538V16.2H95.8218ZM97.9338 29H101.39V61H97.9338V29ZM99.6938 22.952C99.0964 22.952 98.5844 22.76 98.1578 22.376C97.7524 21.9707 97.5498 21.4693 97.5498 20.872C97.5498 20.2747 97.7524 19.784 98.1578 19.4C98.5844 18.9947 99.0964 18.792 99.6938 18.792C100.27 18.792 100.76 18.9947 101.166 19.4C101.592 19.784 101.806 20.2747 101.806 20.872C101.806 21.4693 101.603 21.9707 101.198 22.376C100.792 22.76 100.291 22.952 99.6938 22.952ZM108.996 61V29H112.452V33.896C113.626 32.1253 115.151 30.7173 117.028 29.672C118.906 28.6267 120.975 28.104 123.236 28.104C125.711 28.104 127.962 28.7227 129.988 29.96C132.036 31.176 133.626 32.7973 134.756 34.824C135.887 32.7973 137.466 31.176 139.492 29.96C141.519 28.7227 143.77 28.104 146.244 28.104C148.676 28.104 150.895 28.7013 152.9 29.896C154.906 31.0693 156.495 32.6587 157.668 34.664C158.863 36.6693 159.46 38.888 159.46 41.32V61H156.004V41.96C156.004 40.104 155.556 38.3973 154.66 36.84C153.764 35.2613 152.559 33.992 151.044 33.032C149.53 32.072 147.844 31.592 145.988 31.592C144.154 31.592 142.468 32.04 140.932 32.936C139.418 33.8107 138.212 35.0267 137.316 36.584C136.42 38.1413 135.972 39.9333 135.972 41.96V61H132.516V41.96C132.516 39.9333 132.058 38.1413 131.14 36.584C130.244 35.0267 129.039 33.8107 127.524 32.936C126.01 32.04 124.324 31.592 122.468 31.592C120.634 31.592 118.959 32.072 117.444 33.032C115.93 33.992 114.714 35.2613 113.796 36.84C112.9 38.3973 112.452 40.104 112.452 41.96V61H108.996ZM179.326 61.832C176.382 61.832 173.694 61.0747 171.262 59.56C168.852 58.0453 166.921 56.0187 165.47 53.48C164.041 50.92 163.326 48.0933 163.326 45C163.326 42.6533 163.742 40.4667 164.574 38.44C165.406 36.392 166.548 34.6 167.998 33.064C169.47 31.5067 171.177 30.2907 173.118 29.416C175.06 28.5413 177.129 28.104 179.326 28.104C181.652 28.104 183.796 28.5627 185.758 29.48C187.742 30.376 189.449 31.6453 190.878 33.288C192.308 34.9307 193.406 36.872 194.174 39.112C194.942 41.3307 195.294 43.7627 195.23 46.408H166.942C167.177 48.6907 167.86 50.7387 168.99 52.552C170.142 54.344 171.614 55.7627 173.406 56.808C175.198 57.832 177.172 58.3547 179.326 58.376C181.694 58.376 183.828 57.7573 185.726 56.52C187.625 55.2613 189.15 53.544 190.302 51.368L193.79 52.168C192.51 55.0053 190.58 57.3307 187.998 59.144C185.417 60.936 182.526 61.832 179.326 61.832ZM166.846 43.464H191.742C191.614 41.2667 190.974 39.2507 189.822 37.416C188.692 35.56 187.209 34.0773 185.374 32.968C183.54 31.8587 181.524 31.304 179.326 31.304C177.129 31.304 175.124 31.848 173.31 32.936C171.497 34.024 170.014 35.496 168.862 37.352C167.732 39.1867 167.06 41.224 166.846 43.464ZM237.171 61.832C234.142 61.832 231.294 61.2347 228.627 60.04C225.961 58.824 223.614 57.1493 221.587 55.016C219.561 52.8827 217.971 50.4187 216.819 47.624C215.667 44.808 215.091 41.8 215.091 38.6C215.091 35.4 215.667 32.4027 216.819 29.608C217.971 26.792 219.561 24.3173 221.587 22.184C223.614 20.0507 225.961 18.3867 228.627 17.192C231.294 15.976 234.142 15.368 237.171 15.368C240.222 15.368 243.081 15.976 245.747 17.192C248.414 18.3867 250.761 20.0507 252.787 22.184C254.814 24.3173 256.393 26.792 257.523 29.608C258.675 32.4027 259.251 35.4 259.251 38.6C259.251 41.8 258.675 44.808 257.523 47.624C256.393 50.4187 254.814 52.8827 252.787 55.016C250.761 57.1493 248.414 58.824 245.747 60.04C243.081 61.2347 240.222 61.832 237.171 61.832ZM237.171 58.376C239.774 58.376 242.195 57.8533 244.435 56.808C246.697 55.7627 248.67 54.3333 250.355 52.52C252.062 50.6853 253.395 48.5733 254.355 46.184C255.315 43.7947 255.795 41.2667 255.795 38.6C255.795 35.8907 255.305 33.3413 254.323 30.952C253.363 28.5627 252.03 26.4613 250.323 24.648C248.617 22.8347 246.643 21.416 244.403 20.392C242.163 19.3467 239.753 18.824 237.171 18.824C234.569 18.824 232.137 19.3467 229.875 20.392C227.635 21.4373 225.662 22.8773 223.955 24.712C222.27 26.5253 220.947 28.6267 219.987 31.016C219.027 33.4053 218.547 35.9333 218.547 38.6C218.547 41.3093 219.027 43.8587 219.987 46.248C220.969 48.6373 222.313 50.7493 224.019 52.584C225.726 54.3973 227.699 55.816 229.939 56.84C232.201 57.864 234.611 58.376 237.171 58.376ZM264.091 48.616V29H267.547V48.072C267.547 49.9707 268.006 51.6987 268.923 53.256C269.862 54.8133 271.11 56.0507 272.667 56.968C274.225 57.8853 275.942 58.344 277.819 58.344C279.718 58.344 281.435 57.8853 282.971 56.968C284.529 56.0507 285.766 54.8133 286.683 53.256C287.622 51.6987 288.091 49.9707 288.091 48.072V29H291.547V61H288.091V56.04C286.939 57.7893 285.414 59.1973 283.515 60.264C281.638 61.3093 279.569 61.832 277.307 61.832C274.875 61.832 272.657 61.2453 270.651 60.072C268.646 58.8773 267.046 57.2773 265.851 55.272C264.678 53.2667 264.091 51.048 264.091 48.616ZM314.03 32.456H305.934L305.902 61H302.446L302.478 32.456H296.366V29H302.478L302.446 18.952H305.902L305.934 29H314.03V32.456Z" fill="#0F544B"/>
<path d="M36.8769 15.655V20.0182H24.6762V52.0145H20.2776V20.0182H8.10303V15.655H36.8769Z" fill="#EB4700"/>
<path d="M22.243 61.6174C19.7644 61.6174 17.4342 61.1326 15.2524 60.163C13.0706 59.1761 11.1506 57.8169 9.49243 56.0856C7.83421 54.3542 6.53385 52.3544 5.59131 50.0863C4.64876 47.8008 4.17749 45.3595 4.17749 42.7624C4.17749 40.1653 4.64876 37.7327 5.59131 35.4646C6.53385 33.1791 7.83421 31.1707 9.49243 29.4393C11.1506 27.7079 13.0706 26.3574 15.2524 25.3878C17.4342 24.4009 19.7644 23.9075 22.243 23.9075C24.7389 23.9075 27.0779 24.4009 29.2597 25.3878C31.4415 26.3574 33.3615 27.7079 35.0197 29.4393C36.6778 31.1707 37.9695 33.1791 38.8946 35.4646C39.8372 37.7327 40.3084 40.1653 40.3084 42.7624C40.3084 45.3595 39.8372 47.8008 38.8946 50.0863C37.9695 52.3544 36.6778 54.3542 35.0197 56.0856C33.3615 57.8169 31.4415 59.1761 29.2597 60.163C27.0779 61.1326 24.7389 61.6174 22.243 61.6174ZM22.243 58.8125C24.3724 58.8125 26.3535 58.3883 28.1862 57.5399C30.0364 56.6916 31.6509 55.5315 33.0299 54.0598C34.4262 52.5708 35.5172 50.8567 36.3026 48.9176C37.0881 46.9784 37.4808 44.9267 37.4808 42.7624C37.4808 40.5636 37.0793 38.4945 36.2764 36.5554C35.491 34.6162 34.4 32.9107 33.0037 31.4391C31.6073 29.9674 29.9928 28.816 28.1601 27.9849C26.3273 27.1366 24.355 26.7123 22.243 26.7123C20.1135 26.7123 18.1237 27.1366 16.2735 27.9849C14.4408 28.8333 12.8262 30.002 11.4299 31.491C10.0509 32.9627 8.9688 34.6682 8.18334 36.6073C7.39785 38.5464 7.00513 40.5981 7.00513 42.7624C7.00513 44.9613 7.39785 47.0304 8.18334 48.9695C8.98622 50.9086 10.0859 52.6227 11.4822 54.1118C12.8786 55.5834 14.4932 56.7348 16.3259 57.5659C18.176 58.397 20.1484 58.8125 22.243 58.8125Z" fill="#EB4700"/>
</svg>
